<svg xmlns="http://www.w3.org/2000/svg" width="530" height="530" viewBox="0 0 530 530" fill="none">
<path d="M492.275 401.313C517.024 360.157 530.068 313.025 530 265C530 118.643 411.349 0 264.998 0C118.642 0 0.0002649 118.647 0.0002649 265C-0.0677938 313.026 12.9797 360.159 37.735 401.313L36.7704 402.085L37.9222 401.639C84.3047 478.549 168.638 530 264.998 530C361.362 530 445.686 478.549 492.063 401.639L493.215 402.085L492.275 401.313ZM497.443 265C497.488 305.583 486.849 345.462 466.595 380.629L302.66 248.592L269.038 32.6721C395.536 34.8317 497.443 137.983 497.443 265ZM32.5808 265C32.5808 137.988 134.479 34.8365 260.976 32.6721L227.354 248.592L63.4194 380.629C43.1717 345.46 32.536 305.581 32.5808 265ZM265.007 497.429C182.531 497.429 110.138 454.429 68.8855 389.666L265.007 313.792L461.129 389.67C419.872 454.429 347.493 497.429 265.007 497.429Z" fill="#1A1A1A"/>
</svg>
