<?xml version="1.0" encoding="utf-8"?>
<!-- Generator: Adobe Illustrator 28.2.0, SVG Export Plug-In . SVG Version: 6.00 Build 0)  -->
<svg version="1.1" id="Layer_1" xmlns="http://www.w3.org/2000/svg" xmlns:xlink="http://www.w3.org/1999/xlink" x="0px" y="0px"
	 viewBox="0 0 1920 1080" style="enable-background:new 0 0 1920 1080;" xml:space="preserve">
<style type="text/css">
	.st0{fill-rule:evenodd;clip-rule:evenodd;}
</style>
<g>
	<g>
		<g>
			<path d="M1663.8,494.4c9.9,19.2,19,36.7,28.1,54.2c1,1.9,0.1,4.1-1.8,4.9c-5.2,2.1-10.7,0.4-14.3-5.8
				c-8.1-14.2-15.8-28.6-22.7-43.4c-3.2-7-6.8-10.4-14.8-10.1c-8.4,0.3-16.8-0.7-25.2-1.5c-5.4-0.5-8.4,1.1-10.2,6.6
				c-5.3,16-11.1,31.9-16.8,47.7c-0.7,1.9-1.4,4.2-2.8,5.4c-0.5,0.4-1,0.8-1.6,1.1c-3.1,1.8-7.2-0.1-7.6-3.7c0-0.4,0-0.8,0.1-1.2
				c4.3-13.4,9.3-26.5,13.9-39.8c10.5-30.1,20.9-60.3,31.7-90.4c0.8-2.2,4.1-5,6.2-5c27.6,0,55.2,0,82.8,0.9
				c12.8,0.4,22.9,10,22.3,21c-1.2,21.2-8,40.7-27.9,51.4c-8.2,4.4-18.6,4.8-28,6.8C1672.7,494.2,1669.9,494.1,1663.8,494.4z
				 M1610.4,480.8c11.3,0,21.4,0.2,31.6,0c12.5-0.3,25.1,0.1,37.5-1.6c19.2-2.6,31.2-16,33.6-35.3c1.4-11.2-1.8-15.5-13-15.8
				c-22-0.5-44-0.7-66-0.5c-2.3,0-5.8,3-6.7,5.3c-5.6,13.7-10.6,27.7-15.7,41.6C1611.2,476.1,1611,477.9,1610.4,480.8z"/>
			<path d="M1494.2,474.1c3.2,0.4,5.3,0.9,7.5,0.9c22.8,0.2,45.6,0.2,68.4,0.6c0.2,0,0.4,0,0.5,0c4,0.5,6.1,5,4.3,8.6
				c-1,1.8-2,3.6-3.2,5.3c-0.8,1.1-3.9,0.7-5.9,0.7c-24.3-0.5-48.6-1.1-72.9-1.4c-2.2,0-5.7,1.2-6.3,2.7
				c-6,14.3-11.5,28.9-17.4,43.9c2,0.5,3.6,1.3,5.2,1.3c26.9,0.1,53.8,0.1,80.7,0.4c2.9,0,7.8,1.4,8.3,3.2
				c1.9,6.4-2.4,12.9-7.8,13.3c-5.1,0.4-10.2,0.1-15.4,0c-26.4-0.5-52.7-1-79.1-1.5c-1.3,0-2.6-0.1-4.1-0.3
				c-3.5-0.4-5.7-3.9-4.5-7.2c1.3-3.6,2.5-7,3.8-10.4c14.2-35.9,28.8-71.7,42.5-107.8c5-13.2,3.9-13.5,18.1-13.5
				c27.9,0,55.8-0.2,83.7-0.1c0.2,0,0.4,0,0.6,0c4.2,0.5,6.3,5.3,4.1,8.9c-1.2,2-2.6,4-4.2,5.6c-1.3,1.3-4.9,0.5-7.5,0.5
				c-25.4-0.1-50.7-0.1-76.1-0.4c-4.4,0-6.9,0.9-8.4,5.6C1504.6,446.5,1499.4,459.8,1494.2,474.1z"/>
			<path d="M1084.6,539.4c28.4,0,54.9,0,81.5,0c2.8,0,5.8-0.7,8.4,0c1.3,0.3,2.5,0.9,3.7,1.7c2.3,1.3,3.1,4.2,1.8,6.6
				c-1,1.9-2.1,3.7-3.5,5c-1.5,1.4-4.9,1.2-7.4,1.2c-30.2,0-60.4,0.1-90.6-0.1c-9.9,0-10.2-1.1-7.1-10
				c13.2-38.2,26.2-76.4,39.1-114.7c4.9-14.6,5.2-15,20.4-15c28.9-0.1,57.8-0.5,86.7-0.5c0.8,0,1.5,0.2,2.3,0.5
				c3,1.1,4.2,4.7,2.7,7.5c-1.2,2.2-2.5,4.4-4.2,5.9c-1.8,1.6-5.9,0.7-9,0.7c-25.3-0.2-50.7-0.1-76-1c-9-0.3-12.6,2.7-14.6,11.2
				c-2.6,11.4-6.7,22.4-10.5,34.6c3.6,0.5,6.5,1.2,9.4,1.2c23.8,0.5,47.6,0.8,71.4,1.4c3.5,0.1,9-2.4,9.8,4c0.8,6-3.5,9.9-10.7,9.9
				c-25.1,0.1-50.2,0.3-75.2-0.1c-7.9-0.1-12,2.1-14.3,10C1095.1,512.1,1090,524.4,1084.6,539.4z"/>
			<path d="M1309.8,530.2c4.1-10.3,8.6-20.4,12.3-30.8c9.4-26.3,18.3-52.7,27.6-79c1.5-4.2,1.7-11,8.6-9.1c1.4,0.4,2.2,8.4,1,12.1
				c-11.7,34.7-23.8,69.2-35.9,103.7c-2.6,7.5-5.3,15-8.2,22.3c-3.1,7.7-7,8.6-10.8,1.6c-8.3-15.2-15.8-30.9-23.2-46.6
				c-10.1-21.3-19.8-42.7-29.8-64c-0.9-2-2.5-3.6-4.2-6c-1.1,1.5-1.9,2.2-2.1,3c-11.3,35.9-22.4,71.8-33.7,107.6
				c-0.7,2.2-1.2,5.3-2.8,6.1c-1.4,0.7-2.9,1.1-4.4,1.5c-3.7,0.8-7.4-2.1-7-5.9c0-0.4,0.1-0.7,0.2-1c14.2-42.7,28.6-85.4,43.2-128
				c0.9-2.5,4.1-6.4,5.4-6.1c3.1,0.8,6.7,3.1,8.2,5.8c9,16.6,18.1,33.3,26.1,50.5c8.6,18.3,16,37.1,24,55.7c1,2.3,2.1,4.5,3.1,6.7
				C1308.4,530.2,1308.5,530.2,1309.8,530.2z"/>
			<path d="M993.9,554.2c-4.9,0-9.7,0.1-14.6,0c-26.4-0.6-42.5-21.3-34.6-46.4c6.2-20,13.5-39.8,22.2-58.8
				c10.9-23.7,30.6-36,56.8-36.5c13-0.2,26.1,0.8,39.1,1.7c10.1,0.7,18.4,6,23.5,14.2c2.6,4.2,2.6,10.6,1.9,15.8
				c-0.3,2.1-5.1,4.5-8.2,5.3c-5.4,1.4-8.5-1.1-9.4-7c-1.7-12-4-14.5-16.2-14.8c-14.3-0.4-28.7,0.3-43,0.7
				c-15.1,0.4-25.5,9.3-31,21.8c-8.6,19.6-15.9,39.9-22.3,60.3c-4.1,13.3,1.7,23.6,15.4,25.7c15.2,2.4,31,1.2,46.5,1.6
				c1,0,2-0.4,3-0.4c12-0.2,19.8-5.9,22.5-17.8c1.6-7,6.5-8.5,12.8-8c7.8,0.6,9.4,3.3,6.1,10.5c-8.2,17.9-22.9,27.2-41.6,30.4
				c-9.5,1.6-19.4,1.6-29,2.3C993.9,554.6,993.9,554.4,993.9,554.2z"/>
			<path d="M1416.7,428c-12.7,0-24.2-0.1-35.7,0c-5.6,0.1-9.9-0.2-9.6-8c0.3-7.9,4.9-7.5,10.3-7.5c33.8-0.1,67.6-0.3,101.3-0.3
				c1,0,2,0.2,3.1,0.6c2.8,0.9,4.1,4.2,2.7,6.8c-1.3,2.4-2.6,4.8-4.3,6.9c-1,1.2-4.4,0.7-6.7,0.7c-13.1,0-26.1-0.3-39.2,0.1
				c-2.5,0.1-6.3,2.4-7.1,4.5c-11.1,31.3-21.8,62.8-32.4,94.2c-2.7,8-5,16.1-7.5,24.2c-1.6,5.1-4.5,8-10.3,6.2
				c-5.7-1.9-5.5-6-3.8-10.5c9.5-24.6,19.4-49,28.4-73.8c4.4-12.2,7.2-25,10.6-37.6C1417.2,432.7,1416.7,430.6,1416.7,428z"/>
		</g>
		<g>
			<path d="M213.5,661.2c-3.5,0-6.8-0.6-9.8-1.8c-3-1.2-5.6-2.9-7.9-5.1c-2.2-2.2-4-4.8-5.2-7.7c-1.2-3-1.9-6.2-1.9-9.7
				c0-3.5,0.6-6.7,1.9-9.7c1.2-2.9,3-5.5,5.2-7.7c2.2-2.2,4.8-3.9,7.9-5.1c3-1.2,6.3-1.8,9.8-1.8c3.2,0,6.2,0.5,9,1.5
				c2.9,1,5.3,2.6,7.4,4.6l-0.8,1c-2.2-2.1-4.6-3.6-7.2-4.5c-2.6-0.9-5.4-1.3-8.3-1.3c-3.3,0-6.4,0.6-9.2,1.8
				c-2.9,1.2-5.3,2.8-7.4,4.9c-2.1,2.1-3.8,4.5-4.9,7.3c-1.2,2.8-1.8,5.8-1.8,9.1c0,3.3,0.6,6.3,1.8,9.1c1.2,2.8,2.8,5.2,4.9,7.3
				c2.1,2.1,4.6,3.7,7.4,4.9c2.9,1.2,5.9,1.8,9.2,1.8c2.9,0,5.7-0.5,8.3-1.3c2.6-0.9,5-2.4,7.2-4.5l0.8,1c-2.1,2.1-4.5,3.6-7.4,4.7
				S216.7,661.2,213.5,661.2z"/>
			<path d="M242.5,661v-48.4h38.6V661h-1.4v-47.7l0.6,0.6h-37l0.6-0.6V661H242.5z"/>
			<path d="M301.4,659.7h30.8v1.3H300v-48.4h31.1v1.3h-29.7V659.7z M301,635.8h27v1.3h-27V635.8z"/>
			<path d="M344.5,661v-48.4h1.4v47h33.8v-47h1.4V661H344.5z M387.8,673.1v-12.7l0.6,0.6h-8.7v-1.3h9.5v13.4H387.8z"/>
			<path d="M401.2,661v-48.4h1.4v45.7l35.7-45.7h1V661h-1.4v-45.7L402.2,661H401.2z"/>
			<path d="M450.3,661l22.4-48.4h1.4l22.4,48.4h-1.6L473,613.8h0.7L451.9,661H450.3z M457.7,646.5l0.7-1.3h30l0.7,1.3H457.7z"/>
			<path d="M501.4,661.2c-0.5,0-0.9,0-1.3-0.1c-0.4,0-0.9-0.1-1.5-0.3l0.3-1.3c0.9,0.2,1.7,0.3,2.4,0.3c2.2,0,3.9-0.8,5.3-2.5
				c1.4-1.7,2.4-4.4,3.2-8.2c0.8-3.8,1.3-8.8,1.5-15.1l0.8-21.4h30.1V661h-1.4v-47.7l0.6,0.6h-28.6l0.6-0.6l-0.8,20.8
				c-0.2,4.9-0.5,9-1,12.5c-0.5,3.4-1.2,6.2-2.1,8.4c-0.9,2.1-2,3.7-3.4,4.7C504.8,660.7,503.2,661.2,501.4,661.2z"/>
			<path d="M561,661v-48.4h1.4v45.7l35.7-45.7h1V661h-1.4v-45.7L562.1,661H561z"/>
			<path d="M611.3,654.2l0.9-0.8c2.2,2.2,4.6,3.8,7.5,4.9c2.8,1.1,5.7,1.6,8.6,1.6c2.9,0,5.6-0.5,8-1.5c2.5-1,4.5-2.4,6-4.2
				c1.5-1.9,2.3-4.1,2.3-6.8c0-3.5-1.3-6.2-4-8.1c-2.7-1.9-6.4-2.9-11.2-2.9h-9.4v-1.3h9.5c4.1,0,7.3-0.9,9.6-2.7
				c2.3-1.8,3.4-4.3,3.4-7.5c0-2.2-0.6-4.1-1.8-5.7c-1.2-1.6-2.8-2.9-4.8-3.8c-2-0.9-4.3-1.5-6.8-1.6s-5.1,0.2-7.8,0.9
				c-2.7,0.7-5.2,1.9-7.7,3.6l-0.7-1.2c2.7-1.7,5.4-3,8.3-3.7c2.9-0.7,5.7-1,8.3-0.8c2.7,0.2,5.1,0.8,7.2,1.9c2.1,1,3.8,2.4,5.1,4.2
				c1.3,1.8,1.9,3.9,1.9,6.3c0,2.3-0.6,4.4-1.7,6.1c-1.1,1.7-2.8,3-4.9,3.9c-2.1,0.9-4.6,1.4-7.5,1.4l0.3-0.9c3.3,0,6.1,0.5,8.5,1.5
				c2.4,1,4.2,2.4,5.5,4.2s1.9,4,1.9,6.5c0,2.4-0.6,4.5-1.7,6.3c-1.1,1.8-2.7,3.3-4.7,4.5s-4.2,2-6.6,2.5c-2.4,0.5-4.9,0.6-7.5,0.3
				c-2.6-0.3-5.1-1-7.5-2.1C615.4,657.8,613.2,656.2,611.3,654.2z"/>
			<path d="M661,661v-48.4h1.4v45.7l35.7-45.7h1V661h-1.4v-45.7L662,661H661z"/>
			<path d="M718,661v-48.4h16.3c4,0,7.3,0.6,10.2,1.9c2.8,1.3,5,3.1,6.5,5.4c1.5,2.3,2.3,5.2,2.3,8.6c0,3.3-0.8,6.2-2.3,8.5
				c-1.5,2.4-3.7,4.2-6.5,5.5c-2.8,1.3-6.2,1.9-10.2,1.9h-15.6l0.6-0.6V661H718z M719.4,643.7l-0.6-0.6h15.7c5.7,0,10-1.3,13-3.8
				c3-2.6,4.5-6.1,4.5-10.7c0-4.6-1.5-8.2-4.5-10.8c-3-2.5-7.3-3.8-13-3.8h-15.7l0.6-0.6V643.7z"/>
			<path d="M758.5,661l22.4-48.4h1.4l22.4,48.4h-1.6l-21.9-47.3h0.7L760.1,661H758.5z M765.9,646.5l0.7-1.3h30l0.7,1.3H765.9z"/>
			<path d="M817.1,661h-1.4v-48.4h1.4V661z M852.7,637.1h-35.9v-1.3h35.9V637.1z M852.3,612.7h1.4V661h-1.4V612.7z"/>
			<path d="M890.6,653.9v0.6c-0.1,3.3,0.9,4.1,5.9,4.3v2.5c-3-0.1-4.6-0.2-6.8-0.2c-2.1,0-3.9,0.1-7.5,0.2v-2.5
				c5.1-0.1,5.8-0.8,5.8-4.8l0.7-31.7l0.1-0.3c0-3.8-1-4.5-5.9-4.6v-2.6c3.1,0.2,4.8,0.3,7.7,0.3c3,0,4.9-0.1,8.1-0.3l12.5,30.4
				l12.6-30.4c3.2,0.2,5,0.3,7.9,0.3c2.8,0,4.4-0.1,7.4-0.3v2.6c-5,0.2-5.9,0.8-5.9,4.5v0.4l0.6,31.8c0,4,0.8,4.7,5.8,4.8v2.5
				c-4.4-0.3-6.8-0.5-10.3-0.5c-3.6,0-6,0.1-10.4,0.5v-2.5c5-0.1,5.9-0.8,5.9-4.6v-0.3l-0.6-33.3l-12.6,30.7
				c-1.1,2.8-1.6,4.2-2.9,8.4h-1.4c-0.8-2.5-1.1-3.4-1.4-4.3c-0.6-1.7-1.3-3.3-1.9-5.1l-12.4-30.2L890.6,653.9z"/>
			<path d="M976.5,661h-33.4v-2.6c5.1-0.1,5.9-0.8,5.9-4.8v-31.3c0-4.1-0.8-4.8-5.9-4.8v-2.6H976l1.9,12.2h-2.2
				c-1.7-7.5-3.7-9.5-9.3-9.5h-8.3v18.3h7.7c3.1,0,3.7-0.8,4.1-5.7h2.6v14.1h-2.6c-0.2-4.7-0.9-5.7-4.1-5.7h-7.7v16.4
				c0,2.9,0.8,3.6,4,3.6h3.6c4.1,0,6.1-1.1,8.3-4.5c1.2-1.8,1.9-3.4,2.6-5.7h2.2L976.5,661z"/>
			<path d="M998,653.8c0,4.1,0.7,4.7,5.8,4.8v2.6c-4.1-0.3-6.3-0.5-9.9-0.5c-3.5,0-6,0.1-10.5,0.5v-2.6c5.1-0.1,5.9-0.8,5.9-4.8
				v-31.5c0-4.1-0.8-4.8-5.9-4.8v-2.6h20.3c5.4,0,8.2,0.6,10.9,2.4c3.4,2.1,5.5,6.1,5.5,10.2c0,4-1.9,7.6-5.1,9.5
				c-1.7,1-3.1,1.5-5.9,2.2c3.3,1.1,4.4,2.2,6.6,6.6l3.8,8.2c1.7,3.9,2.7,4.6,5.7,4.7v2.6c-2.6-0.1-4-0.2-5.8-0.2
				c-1.8,0-3.2,0.1-5.7,0.2c-0.9-1.4-1.1-1.9-2.1-4.1l-4.8-11.2c-2-4.7-3.2-5.7-6.8-5.7H998V653.8z M1001.9,637.6
				c3.2,0,5.2-0.6,6.6-2.2c1.6-1.7,2.5-4.4,2.5-7.8c0-6.8-2.8-10.1-8.6-10.1h-4.1v20.1H1001.9z"/>
			<path d="M1063.9,644.6c-0.3,10.7-7,17.6-17,17.6c-11.7,0-19.4-9.3-19.4-23.5c0-15.5,7.4-24.8,19.8-24.8c5.1,0,8.6,1.5,12.1,5.1
				l2.3-5.1h1.5v15.8h-2.2c-0.8-3.5-1.4-5.2-2.7-7.3c-2-3.3-5.6-5.5-9.6-5.5c-4.4,0-7.6,2.1-9.3,6.3c-1.6,3.7-2.4,8.7-2.4,14.3
				c0,13.1,4,19.6,12.1,19.6c7.2,0,12-4.8,12.6-12.5H1063.9z"/>
			<path d="M1103,661h-33.4v-2.6c5.1-0.1,5.9-0.8,5.9-4.8v-31.3c0-4.1-0.8-4.8-5.9-4.8v-2.6h32.9l1.9,12.2h-2.2
				c-1.6-7.5-3.7-9.5-9.3-9.5h-8.4v18.3h7.7c3.1,0,3.7-0.8,4.1-5.7h2.6v14.1h-2.6c-0.2-4.7-0.9-5.7-4.1-5.7h-7.7v16.4
				c0,2.9,0.8,3.6,4,3.6h3.6c4.1,0,6.1-1.1,8.3-4.5c1.2-1.8,1.9-3.4,2.6-5.7h2.2L1103,661z"/>
			<path d="M1115.8,622.3c0-4.1-0.8-4.8-5.9-4.8v-2.6h19.6c6.4,0,10.8,1.5,14.3,4.9c4.4,4.2,7,10.9,7,18c0,7.3-2.8,14.5-7.5,18.5
				c-3.8,3.3-8.7,4.8-16,4.8h-17.4v-2.6c5.1-0.1,5.9-0.8,5.9-4.8V622.3z M1124.9,655.4c0,2.5,0.6,3,3.6,3c4.8,0,7.8-1.2,9.6-3.9
				c2.3-3.3,3.5-9.1,3.5-17.3c0-13.8-3.8-19.7-12.6-19.7h-4.1V655.4z"/>
			<path d="M1188.7,661h-33.4v-2.6c5.1-0.1,5.9-0.8,5.9-4.8v-31.3c0-4.1-0.8-4.8-5.9-4.8v-2.6h32.9l1.9,12.2h-2.2
				c-1.6-7.5-3.7-9.5-9.3-9.5h-8.4v18.3h7.7c3.1,0,3.7-0.8,4.1-5.7h2.6v14.1h-2.6c-0.2-4.7-0.9-5.7-4.1-5.7h-7.7v16.4
				c0,2.9,0.8,3.6,4,3.6h3.6c4.1,0,6.1-1.1,8.3-4.5c1.2-1.8,1.9-3.4,2.6-5.7h2.2L1188.7,661z"/>
			<path d="M1200,646c0.5,3.6,1.2,5.5,2.5,7.7c2.1,3.2,5.9,5.3,9.6,5.3c5,0,8.8-3.5,8.8-7.9c0-2.4-1.2-4.8-3.5-6.6
				c-1.5-1.1-2.2-1.5-6.5-3.9c-5.6-3.1-7.9-4.6-9.4-6.3c-2.1-2.2-3.1-4.9-3.1-8c0-7.3,5.9-12.1,14.6-12.1c4.3,0,7,1,10.2,4l2.3-4.4
				h1.5V628h-2.3c-1.3-7.4-4.9-11.3-10.4-11.3c-4.6,0-7.9,3-7.9,7.3c0,3.1,1.2,4.4,6.8,7.5c4.1,2.2,7.6,4.3,9.2,5.3
				c4.6,3,6.6,6.3,6.6,11.2c0,8.1-6.1,13.8-14.6,13.8c-4.7,0-8.2-1.2-12.4-4.5l-2.7,5.3h-1.5V646H1200z"/>
			<path d="M1232,641.6h18.3v3.6H1232V641.6z"/>
			<path d="M1272.4,614.9c4.7,0,7.5,0.6,10,2.2c3,1.9,4.8,5.4,4.8,9.1c0,5-2.6,8.2-8.1,10c6.3,0.8,10.3,5.3,10.3,11.6
				c0,5.2-3,9.8-7.4,11.6c-2.9,1.1-6.3,1.7-11,1.7h-18.9v-2.6c5.1-0.1,5.9-0.8,5.9-4.8v-31.3c0-4.1-0.8-4.8-5.9-4.8v-2.6H1272.4z
				 M1270.5,635.7c5.5,0,7.7-2.5,7.7-9.1c0-6.5-2-9.1-7-9.1h-4.3v18.1H1270.5z M1266.8,655.4c0,2.3,0.6,2.8,3.1,2.8h2.5
				c5.4,0,7.9-3.3,7.9-10.1c0-3.5-0.7-6.3-2.2-7.9c-1.2-1.5-3-2-6.4-2h-4.9V655.4z"/>
			<path d="M1327.4,661H1294v-2.6c5.1-0.1,5.9-0.8,5.9-4.8v-31.3c0-4.1-0.8-4.8-5.9-4.8v-2.6h32.9l1.9,12.2h-2.2
				c-1.6-7.5-3.7-9.5-9.3-9.5h-8.4v18.3h7.7c3.1,0,3.7-0.8,4.1-5.7h2.6v14.1h-2.6c-0.2-4.7-0.9-5.7-4.1-5.7h-7.7v16.4
				c0,2.9,0.8,3.6,4,3.6h3.6c4.1,0,6.1-1.1,8.3-4.5c1.2-1.8,1.9-3.4,2.6-5.7h2.2L1327.4,661z"/>
			<path d="M1371,662.2c-1.4-2.4-2.6-4.1-3.7-5.7c-1.5-2.1-2.9-4.2-4.5-6.2l-20.2-27.3v30.9c0,4.1,0.8,4.7,5.9,4.8v2.6
				c-3.2-0.1-4.9-0.2-7.2-0.2c-2.3,0-4.1,0.1-7.2,0.2v-2.6c5.2-0.1,5.9-0.7,5.9-4.8v-34c-2.1-1.9-3.4-2.6-5.9-2.6v-2.6
				c2.9,0.1,4.6,0.2,6.7,0.2c2.2,0,3.8-0.1,6.6-0.2l22.6,30.1v-22.7c0-4.1-0.8-4.8-5.9-4.8v-2.6c3.1,0.1,4.8,0.2,7.2,0.2
				c2.5,0,4.1-0.1,7.2-0.2v2.6c-5.1,0.1-5.9,0.8-5.9,4.8v40.1H1371z"/>
			<path d="M1405.2,617.5h-6.7c-6.2,0-8.9,2.2-11.6,9.4h-2.4l2.1-12h30.1l-23.4,43.5h10.6c4.4,0,6.3-0.9,8.6-4
				c1.4-1.9,2.3-3.9,3.3-7h2.4l-2.3,13.6h-34L1405.2,617.5z"/>
			<path d="M1466.6,661.2c-3.5,0-6.8-0.6-9.8-1.8c-3-1.2-5.6-2.9-7.9-5.1c-2.2-2.2-4-4.8-5.2-7.7c-1.2-3-1.9-6.2-1.9-9.7
				c0-3.5,0.6-6.7,1.9-9.7c1.2-2.9,3-5.5,5.2-7.7s4.9-3.9,7.9-5.1c3-1.2,6.3-1.8,9.8-1.8c3.2,0,6.2,0.5,9,1.5c2.9,1,5.3,2.6,7.4,4.6
				l-0.8,1c-2.2-2.1-4.6-3.6-7.2-4.5c-2.6-0.9-5.4-1.3-8.4-1.3c-3.3,0-6.4,0.6-9.2,1.8c-2.9,1.2-5.3,2.8-7.4,4.9
				c-2.1,2.1-3.8,4.5-4.9,7.3c-1.2,2.8-1.7,5.8-1.7,9.1c0,3.3,0.6,6.3,1.7,9.1c1.2,2.8,2.8,5.2,4.9,7.3c2.1,2.1,4.6,3.7,7.4,4.9
				c2.9,1.2,5.9,1.8,9.2,1.8c3,0,5.7-0.5,8.4-1.3c2.6-0.9,5-2.4,7.2-4.5l0.8,1c-2.1,2.1-4.5,3.6-7.4,4.7
				C1472.8,660.7,1469.8,661.2,1466.6,661.2z"/>
			<path d="M1497.1,659.7h30.8v1.3h-32.1v-48.4h31.1v1.3h-29.7V659.7z M1496.7,635.8h27v1.3h-27V635.8z"/>
			<path d="M1540.2,661v-48.4h16.3c4,0,7.3,0.6,10.2,1.9c2.8,1.3,5,3.1,6.5,5.4c1.5,2.3,2.3,5.2,2.3,8.6c0,3.3-0.8,6.2-2.3,8.5
				c-1.5,2.4-3.7,4.2-6.5,5.5c-2.8,1.3-6.2,1.9-10.2,1.9h-15.6l0.6-0.6V661H1540.2z M1541.6,643.7l-0.6-0.6h15.7
				c5.7,0,10-1.3,13-3.8c3-2.6,4.5-6.1,4.5-10.7c0-4.6-1.5-8.2-4.5-10.8c-3-2.5-7.3-3.8-13-3.8h-15.7l0.6-0.6V643.7z"/>
			<path d="M1588.6,661v-48.4h18.6c4.8,0,8.6,1,11.4,3.1c2.8,2,4.3,5.1,4.3,9.2c0,4.1-1.4,7.1-4.1,9c-2.7,2-6.3,2.9-10.7,2.9
				l1.2-0.9c5.3,0,9.4,1,12.1,3.1c2.7,2.1,4.1,5.2,4.1,9.3c0,4.1-1.4,7.2-4.2,9.4c-2.8,2.2-7,3.3-12.7,3.3H1588.6z M1589.9,635.8
				h17.4c4.5,0,7.9-0.9,10.4-2.8c2.4-1.8,3.7-4.6,3.7-8.2c0-3.6-1.2-6.3-3.7-8.2c-2.5-1.8-5.9-2.8-10.4-2.8h-17.4V635.8z
				 M1589.9,659.7h18.8c5,0,8.8-0.9,11.3-2.7c2.6-1.8,3.9-4.7,3.9-8.6c0-3.9-1.3-6.8-3.9-8.6c-2.6-1.8-6.4-2.7-11.3-2.7h-18.8V659.7
				z"/>
			<path d="M1640.4,661v-48.4h1.4v45.7l35.7-45.7h1V661h-1.4v-45.7l-35.7,45.7H1640.4z"/>
			<path d="M1690.7,654.2l0.9-0.8c2.2,2.2,4.7,3.8,7.4,4.9c2.8,1.1,5.7,1.6,8.6,1.6c2.9,0,5.6-0.5,8-1.5c2.4-1,4.4-2.4,6-4.2
				s2.3-4.1,2.3-6.8c0-3.5-1.3-6.2-4-8.1c-2.6-1.9-6.4-2.9-11.2-2.9h-9.5v-1.3h9.5c4.1,0,7.3-0.9,9.6-2.7c2.3-1.8,3.5-4.3,3.5-7.5
				c0-2.2-0.6-4.1-1.8-5.7c-1.2-1.6-2.8-2.9-4.8-3.8c-2-0.9-4.3-1.5-6.8-1.6s-5.1,0.2-7.8,0.9c-2.7,0.7-5.2,1.9-7.7,3.6l-0.7-1.2
				c2.7-1.7,5.4-3,8.3-3.7c2.9-0.7,5.7-1,8.4-0.8c2.7,0.2,5.1,0.8,7.2,1.9c2.1,1,3.8,2.4,5.1,4.2c1.3,1.8,1.9,3.9,1.9,6.3
				c0,2.3-0.6,4.4-1.7,6.1c-1.2,1.7-2.8,3-4.9,3.9c-2.1,0.9-4.6,1.4-7.5,1.4l0.3-0.9c3.3,0,6.1,0.5,8.5,1.5c2.4,1,4.2,2.4,5.5,4.2
				s1.9,4,1.9,6.5c0,2.4-0.6,4.5-1.7,6.3c-1.1,1.8-2.7,3.3-4.7,4.5c-2,1.2-4.2,2-6.6,2.5c-2.4,0.5-4.9,0.6-7.5,0.3
				c-2.6-0.3-5.1-1-7.5-2.1C1694.8,657.8,1692.6,656.2,1690.7,654.2z"/>
		</g>
	</g>
	<g>
		<path class="st0" d="M938.1,439.6c0.1-27.3-24.5-32-24.5-32H784.5l-7.3,17.8l-0.3,0.8l-16.5,40.3l-5.1,12.5l-5.6,13.7l-27.6,67.7
			c0,0,30.4,0,63.8,0h84.8c5.1,0,9.7-0.4,13.8-1.4c19.5-3.9,26.5-16.3,31.1-25.9c2.1-4.3,3.9-12.3,4-17
			c0.7-28.6-18.9-29.2-18.9-31.5C940.6,484.6,938.1,444.6,938.1,439.6z M872.9,513.9c-0.3,6.7-5,9.2-9,10c-3.1,0.7-5.7,0.6-5.7,0.6
			h-77.4l4.9-15l3.5-10.4c0,0,12.9,0,27.8,0h43C876.3,499,873.1,511.8,872.9,513.9z M892.3,453.5c0,11.1-14.6,11.1-14.6,11.1h-77
			l7.2-24.5h75C893.4,440.1,892.3,450.4,892.3,453.5z"/>
		<polygon class="st0" points="350.3,407.6 280.9,407.6 190.8,560.4 260.9,560.4 		"/>
		<polygon class="st0" points="273.9,560.4 320.6,560.4 410,407.6 363.3,407.6 		"/>
		<polygon class="st0" points="330.6,561.1 377.7,561.1 467.9,406.9 420.8,406.9 		"/>
		<polygon class="st0" points="392.5,561.1 439.6,561.1 529.8,406.9 482.7,406.9 		"/>
		<polygon class="st0" points="453.6,561.1 500.7,561.1 590.9,406.9 543.8,406.9 		"/>
		<polygon class="st0" points="771.2,417.5 752.5,463.2 749.6,470.4 741,457.4 674.2,517.9 634,462.5 577.8,561.1 513.6,561.1 
			515.7,557.5 603.9,406.9 655.2,406.9 665.4,420 684.8,447.2 725.4,408.4 765.2,408.3 		"/>
	</g>
</g>
</svg>
