<?xml version="1.0" encoding="utf-8"?>
<!-- Generator: Adobe Illustrator 28.2.0, SVG Export Plug-In . SVG Version: 6.00 Build 0)  -->
<svg version="1.1" id="Layer_1" xmlns="http://www.w3.org/2000/svg" xmlns:xlink="http://www.w3.org/1999/xlink" x="0px" y="0px"
	 viewBox="0 0 1920 1080" style="enable-background:new 0 0 1920 1080;" xml:space="preserve">
<style type="text/css">
	.st0{fill-rule:evenodd;clip-rule:evenodd;}
</style>
<g>
	<g>
		<path d="M1662.8,500.2c9.9,19.2,19,36.7,28.1,54.2c1,1.9,0.1,4.1-1.8,4.9c-5.2,2.1-10.7,0.4-14.3-5.8
			c-8.1-14.2-15.8-28.6-22.7-43.4c-3.2-7-6.8-10.4-14.8-10.1c-8.4,0.3-16.8-0.7-25.2-1.5c-5.4-0.5-8.4,1.1-10.2,6.6
			c-5.3,16-11.1,31.9-16.8,47.7c-0.7,1.9-1.4,4.2-2.8,5.4c-0.5,0.4-1,0.8-1.6,1.1c-3.1,1.8-7.2-0.1-7.6-3.7c0-0.4,0-0.8,0.1-1.2
			c4.3-13.4,9.3-26.5,13.9-39.8c10.5-30.1,20.9-60.3,31.7-90.4c0.8-2.2,4.1-5,6.2-5c27.6,0,55.2,0,82.8,0.9
			c12.8,0.4,22.9,10,22.3,21c-1.2,21.2-8,40.7-27.9,51.4c-8.2,4.4-18.6,4.8-28,6.8C1671.7,500,1668.8,499.8,1662.8,500.2z
			 M1609.4,486.5c11.3,0,21.4,0.2,31.6,0c12.5-0.3,25.1,0.1,37.5-1.6c19.2-2.6,31.2-16,33.6-35.3c1.4-11.2-1.8-15.5-13-15.8
			c-22-0.5-44-0.7-66-0.5c-2.3,0-5.8,3-6.7,5.3c-5.6,13.7-10.6,27.7-15.7,41.6C1610.1,481.9,1610,483.6,1609.4,486.5z"/>
		<path d="M1493.2,479.8c3.2,0.4,5.3,0.9,7.5,0.9c22.8,0.2,45.6,0.2,68.4,0.6c0.2,0,0.4,0,0.5,0c4,0.5,6.1,5,4.3,8.6
			c-1,1.8-2,3.6-3.2,5.3c-0.8,1.1-3.9,0.7-5.9,0.7c-24.3-0.5-48.6-1.1-72.9-1.4c-2.2,0-5.7,1.2-6.3,2.7c-6,14.3-11.5,28.9-17.4,43.9
			c2,0.5,3.6,1.3,5.2,1.3c26.9,0.1,53.8,0.1,80.7,0.4c2.9,0,7.8,1.4,8.3,3.2c1.9,6.4-2.4,12.9-7.8,13.3c-5.1,0.4-10.2,0.1-15.4,0
			c-26.4-0.5-52.7-1-79.1-1.5c-1.3,0-2.6-0.1-4.1-0.3c-3.5-0.4-5.7-3.9-4.5-7.2c1.3-3.6,2.5-7,3.8-10.4
			c14.2-35.9,28.8-71.7,42.5-107.8c5-13.2,3.9-13.5,18.1-13.5c27.9,0,55.8-0.2,83.7-0.1c0.2,0,0.4,0,0.6,0c4.2,0.5,6.3,5.3,4.1,8.9
			c-1.2,2-2.6,4-4.2,5.6c-1.3,1.3-4.9,0.5-7.5,0.5c-25.4-0.1-50.7-0.1-76.1-0.4c-4.4,0-6.9,0.9-8.4,5.6
			C1503.5,452.3,1498.4,465.5,1493.2,479.8z"/>
		<path d="M1083.5,545.1c28.4,0,54.9,0,81.5,0c2.8,0,5.8-0.7,8.4,0c1.3,0.3,2.5,0.9,3.7,1.7c2.3,1.3,3.1,4.2,1.8,6.6
			c-1,1.9-2.1,3.7-3.5,5c-1.5,1.4-4.9,1.2-7.4,1.2c-30.2,0-60.4,0.1-90.6-0.1c-9.9,0-10.2-1.1-7.1-10
			c13.2-38.2,26.2-76.4,39.1-114.7c4.9-14.6,5.2-15,20.4-15c28.9-0.1,57.8-0.5,86.7-0.5c0.8,0,1.5,0.2,2.3,0.5
			c3,1.1,4.2,4.7,2.7,7.5c-1.2,2.2-2.5,4.4-4.2,5.9c-1.8,1.6-5.9,0.7-9,0.7c-25.3-0.2-50.7-0.1-76-1c-9-0.3-12.6,2.7-14.6,11.2
			c-2.6,11.4-6.7,22.4-10.5,34.6c3.6,0.5,6.5,1.2,9.4,1.2c23.8,0.5,47.6,0.8,71.4,1.4c3.5,0.1,9-2.4,9.8,4c0.8,6-3.5,9.9-10.7,9.9
			c-25.1,0.1-50.2,0.3-75.2-0.1c-7.9-0.1-12,2.1-14.3,10C1094,517.9,1088.9,530.2,1083.5,545.1z"/>
		<path d="M1308.7,535.9c4.1-10.3,8.6-20.4,12.3-30.8c9.4-26.3,18.3-52.7,27.6-79c1.5-4.2,1.7-11,8.6-9.1c1.4,0.4,2.2,8.4,1,12.1
			c-11.7,34.7-23.8,69.2-35.9,103.7c-2.6,7.5-5.3,15-8.2,22.3c-3.1,7.7-7,8.6-10.8,1.6c-8.3-15.2-15.8-30.9-23.2-46.6
			c-10.1-21.3-19.8-42.7-29.8-64c-0.9-2-2.5-3.6-4.2-6c-1.1,1.5-1.9,2.2-2.1,3c-11.3,35.9-22.4,71.8-33.7,107.6
			c-0.7,2.2-1.2,5.3-2.8,6.1c-1.4,0.7-2.9,1.1-4.4,1.5c-3.7,0.8-7.4-2.1-7-5.9c0-0.4,0.1-0.7,0.2-1c14.2-42.7,28.6-85.4,43.2-128
			c0.9-2.5,4.1-6.4,5.4-6.1c3.1,0.8,6.7,3.1,8.2,5.8c9,16.6,18.1,33.3,26.1,50.5c8.6,18.3,16,37.1,24,55.7c1,2.3,2.1,4.5,3.1,6.7
			C1307.3,536,1307.4,536,1308.7,535.9z"/>
		<path d="M992.9,560c-4.9,0-9.7,0.1-14.6,0c-26.4-0.6-42.5-21.3-34.6-46.4c6.2-20,13.5-39.8,22.2-58.8c10.9-23.7,30.6-36,56.8-36.5
			c13-0.2,26.1,0.8,39.1,1.7c10.1,0.7,18.4,6,23.5,14.2c2.6,4.2,2.6,10.6,1.9,15.8c-0.3,2.1-5.1,4.5-8.2,5.3c-5.4,1.4-8.5-1.1-9.4-7
			c-1.7-12-4-14.5-16.2-14.8c-14.3-0.4-28.7,0.3-43,0.7c-15.1,0.4-25.5,9.3-31,21.8c-8.6,19.6-15.9,39.9-22.3,60.3
			c-4.1,13.3,1.7,23.6,15.4,25.7c15.2,2.4,31,1.2,46.5,1.6c1,0,2-0.4,3-0.4c12-0.2,19.8-5.9,22.5-17.8c1.6-7,6.5-8.5,12.8-8
			c7.8,0.6,9.4,3.3,6.1,10.5c-8.2,17.9-22.9,27.2-41.6,30.4c-9.5,1.6-19.4,1.6-29,2.3C992.9,560.4,992.9,560.2,992.9,560z"/>
		<path d="M1415.7,433.7c-12.7,0-24.2-0.1-35.7,0c-5.6,0.1-9.9-0.2-9.6-8c0.3-7.9,4.9-7.5,10.3-7.5c33.8-0.1,67.6-0.3,101.3-0.3
			c1,0,2,0.2,3.1,0.6c2.8,0.9,4.1,4.2,2.7,6.8c-1.3,2.4-2.6,4.8-4.3,6.9c-1,1.2-4.4,0.7-6.7,0.7c-13.1,0-26.1-0.3-39.2,0.1
			c-2.5,0.1-6.3,2.4-7.1,4.5c-11.1,31.3-21.8,62.8-32.4,94.2c-2.7,8-5,16.1-7.5,24.2c-1.6,5.1-4.5,8-10.3,6.2
			c-5.7-1.9-5.5-6-3.8-10.5c9.5-24.6,19.4-49,28.4-73.8c4.4-12.2,7.2-25,10.6-37.6C1416.1,438.5,1415.7,436.4,1415.7,433.7z"/>
	</g>
	<g>
		<path class="st0" d="M937,445.4c0.1-27.3-24.5-32-24.5-32H783.5l-7.3,17.8l-0.3,0.8l-16.5,40.3l-5.1,12.5l-5.6,13.7l-27.6,67.7
			c0,0,30.4,0,63.8,0h84.8c5.1,0,9.7-0.4,13.8-1.4c19.5-3.9,26.5-16.3,31.1-25.9c2.1-4.3,3.9-12.3,4-17
			c0.7-28.6-18.9-29.2-18.9-31.5C939.6,490.3,937,450.4,937,445.4z M871.9,519.7c-0.3,6.7-5,9.2-9,10c-3.1,0.7-5.7,0.6-5.7,0.6
			h-77.4l4.9-15l3.5-10.4c0,0,12.9,0,27.8,0h43C875.2,504.8,872,517.6,871.9,519.7z M891.2,459.3c0,11.1-14.6,11.1-14.6,11.1h-77
			l7.2-24.5h75C892.3,445.9,891.2,456.2,891.2,459.3z"/>
		<polygon class="st0" points="349.2,413.3 279.8,413.3 189.8,566.1 259.8,566.1 		"/>
		<polygon class="st0" points="272.9,566.1 319.6,566.1 409,413.3 362.3,413.3 		"/>
		<polygon class="st0" points="329.5,566.8 376.6,566.8 466.9,412.6 419.7,412.6 		"/>
		<polygon class="st0" points="391.4,566.8 438.6,566.8 528.8,412.6 481.7,412.6 		"/>
		<polygon class="st0" points="452.5,566.8 499.7,566.8 589.9,412.6 542.7,412.6 		"/>
		<polygon class="st0" points="770.2,423.3 751.5,469 748.6,476.1 739.9,463.2 673.1,523.7 632.9,468.3 576.7,566.8 512.6,566.8 
			514.7,563.3 602.8,412.7 654.2,412.7 664.4,425.8 683.7,453 724.3,414.2 764.2,414.1 		"/>
	</g>
	<g>
		<path d="M199.1,667.1v-49.3h1.2l23.4,41h-0.6l23.3-41h1.2v49.3h-1.4v-47.2h0.6l-23,40.3h-0.8l-23.1-40.3h0.6v47.2H199.1z"/>
		<path d="M288.8,665.8h31.3v1.3h-32.8v-49.3h31.7v1.3h-30.3V665.8z M288.4,641.5h27.5v1.3h-27.5V641.5z"/>
		<path d="M355.5,667.1v-49.3h16.7c4,0,7.5,0.6,10.4,1.9s5.1,3.1,6.6,5.5s2.3,5.3,2.3,8.7c0,3.4-0.8,6.3-2.3,8.7
			c-1.5,2.4-3.8,4.3-6.6,5.6c-2.9,1.3-6.3,1.9-10.4,1.9h-15.9l0.6-0.6v17.5H355.5z M356.9,649.5l-0.6-0.6h16
			c5.8,0,10.2-1.3,13.2-3.9c3-2.6,4.6-6.3,4.6-10.9c0-4.7-1.5-8.4-4.6-11c-3.1-2.6-7.4-3.9-13.2-3.9h-16l0.6-0.6V649.5z
			 M390.4,667.1l-12.9-17.9h1.8l12.9,17.9H390.4z"/>
		<path d="M446.9,667.4c-3.6,0-6.9-0.6-10-1.9c-3.1-1.2-5.7-3-8-5.2c-2.3-2.2-4-4.9-5.3-7.9c-1.3-3-1.9-6.3-1.9-9.9s0.6-6.8,1.9-9.9
			c1.3-3,3-5.6,5.3-7.9c2.3-2.3,5-4,8-5.2c3.1-1.2,6.4-1.9,10-1.9c3.2,0,6.3,0.5,9.2,1.5c2.9,1,5.4,2.6,7.5,4.7l-0.8,1
			c-2.2-2.2-4.7-3.7-7.4-4.6c-2.7-0.9-5.5-1.3-8.5-1.3c-3.4,0-6.5,0.6-9.4,1.8c-2.9,1.2-5.4,2.9-7.6,5c-2.2,2.1-3.8,4.6-5,7.5
			c-1.2,2.8-1.8,5.9-1.8,9.3s0.6,6.4,1.8,9.3c1.2,2.8,2.9,5.3,5,7.5c2.1,2.1,4.7,3.8,7.6,5c2.9,1.2,6,1.8,9.4,1.8
			c3,0,5.8-0.5,8.5-1.4c2.7-0.9,5.1-2.4,7.4-4.6l0.8,1c-2.1,2.1-4.6,3.7-7.5,4.7C453.2,666.8,450.1,667.4,446.9,667.4z"/>
		<path d="M499.4,665.8h31.3v1.3h-32.8v-49.3h31.7v1.3h-30.3V665.8z M499,641.5h27.5v1.3H499V641.5z"/>
		<path d="M566,667.1v-49.3h18.6c5.2,0,9.7,1.1,13.6,3.2c3.9,2.1,6.9,5.1,9.1,8.8c2.1,3.7,3.2,7.9,3.2,12.7s-1.1,9-3.2,12.7
			c-2.2,3.7-5.2,6.6-9.1,8.8c-3.9,2.1-8.4,3.2-13.6,3.2H566z M567.4,665.8h17.1c5,0,9.4-1,13.1-3c3.7-2,6.6-4.8,8.6-8.3
			c2-3.5,3-7.5,3-12s-1-8.5-3-12c-2-3.5-4.9-6.3-8.6-8.3c-3.7-2-8.1-3-13.1-3h-17.1V665.8z"/>
		<path d="M646.5,665.8h31.3v1.3h-32.8v-49.3h31.7v1.3h-30.3V665.8z M646.2,641.5h27.5v1.3h-27.5V641.5z"/>
		<path d="M725.2,667.4c-3.6,0-6.9-0.7-10.1-2c-3.2-1.3-5.6-3-7.2-5l1-0.9c1.5,1.8,3.8,3.4,6.7,4.6c2.9,1.3,6.1,1.9,9.5,1.9
			c3.6,0,6.5-0.5,8.8-1.5c2.3-1,4-2.3,5.1-4c1.1-1.7,1.6-3.5,1.6-5.5c0-2.3-0.6-4.2-1.7-5.7c-1.1-1.4-2.6-2.6-4.5-3.4
			c-1.9-0.8-3.9-1.5-6.1-2c-2.2-0.5-4.4-1.1-6.6-1.7c-2.2-0.6-4.3-1.3-6.1-2.2c-1.9-0.9-3.4-2.2-4.5-3.8c-1.1-1.6-1.7-3.7-1.7-6.3
			c0-2.2,0.6-4.2,1.7-6.1c1.1-1.9,2.9-3.4,5.3-4.6c2.4-1.2,5.5-1.8,9.4-1.8c2.6,0,5.2,0.4,7.8,1.2c2.6,0.8,4.7,1.9,6.5,3.3l-0.8,1.1
			c-2-1.5-4.1-2.5-6.5-3.2c-2.4-0.7-4.7-1.1-6.9-1.1c-3.4,0-6.3,0.5-8.5,1.5c-2.2,1-3.9,2.3-5,4c-1.1,1.7-1.6,3.5-1.6,5.6
			c0,2.4,0.6,4.3,1.7,5.7c1.1,1.4,2.6,2.6,4.5,3.4c1.9,0.8,3.9,1.5,6.1,2c2.2,0.5,4.4,1.1,6.6,1.7c2.2,0.6,4.2,1.3,6.1,2.2
			c1.9,0.9,3.4,2.1,4.5,3.7c1.1,1.5,1.7,3.6,1.7,6.1c0,2.2-0.6,4.2-1.7,6.1c-1.2,1.9-3,3.4-5.5,4.5
			C732.3,666.8,729.1,667.4,725.2,667.4z"/>
		<path d="M772.5,643.1v-1.3H790v1.3H772.5z"/>
		<path d="M825.7,667.1v-49.3h19.5c5.1,0,9.1,1,12,3.1c3,2.1,4.5,5.2,4.5,9.3c0,2.7-0.7,5-2,6.8c-1.3,1.8-3.1,3.2-5.5,4
			c-2.3,0.9-5,1.3-8.1,1.3l1.2-0.9c3.8,0,6.9,0.5,9.5,1.4c2.5,1,4.4,2.4,5.7,4.3c1.3,1.9,1.9,4.2,1.9,7c0,4.1-1.5,7.3-4.4,9.5
			c-2.9,2.2-7.4,3.3-13.4,3.3H825.7z M827.2,665.8h19.8c5.2,0,9.2-0.9,12-2.8c2.7-1.9,4.1-4.8,4.1-8.8c0-4-1.4-6.9-4.1-8.7
			c-2.7-1.8-6.7-2.7-12-2.7h-20.1v-1.3h18.7c4.7,0,8.3-0.9,10.9-2.8c2.6-1.9,3.9-4.6,3.9-8.3s-1.3-6.4-3.9-8.3
			c-2.6-1.9-6.2-2.8-10.9-2.8h-18.3V665.8z"/>
		<path d="M900.8,665.8h31.3v1.3h-32.8v-49.3h31.7v1.3h-30.3V665.8z M900.5,641.5H928v1.3h-27.5V641.5z"/>
		<path d="M967.5,667.1v-49.3h1.2l36.8,47.7h-0.8v-47.7h1.4v49.3h-1.2l-36.8-47.7h0.8v47.7H967.5z"/>
		<path d="M1040.1,667.1v-1.1l36.3-47.4l0.1,0.5h-36.1v-1.3h37.6v1.1l-36.3,47.4l-0.1-0.5h37.1v1.3H1040.1z"/>
		<path d="M1162.6,667.4c-3.6,0-6.9-0.7-10.1-2c-3.2-1.3-5.6-3-7.2-5l1-0.9c1.5,1.8,3.8,3.4,6.7,4.6c2.9,1.3,6.1,1.9,9.5,1.9
			c3.6,0,6.5-0.5,8.8-1.5c2.3-1,4-2.3,5.1-4c1.1-1.7,1.6-3.5,1.6-5.5c0-2.3-0.6-4.2-1.7-5.7c-1.1-1.4-2.6-2.6-4.5-3.4
			c-1.9-0.8-3.9-1.5-6.1-2c-2.2-0.5-4.4-1.1-6.6-1.7c-2.2-0.6-4.3-1.3-6.1-2.2c-1.9-0.9-3.4-2.2-4.5-3.8c-1.1-1.6-1.7-3.7-1.7-6.3
			c0-2.2,0.6-4.2,1.7-6.1s2.9-3.4,5.3-4.6c2.4-1.2,5.5-1.8,9.4-1.8c2.6,0,5.2,0.4,7.8,1.2c2.6,0.8,4.7,1.9,6.5,3.3l-0.8,1.1
			c-2-1.5-4.1-2.5-6.5-3.2c-2.4-0.7-4.7-1.1-6.9-1.1c-3.4,0-6.3,0.5-8.5,1.5c-2.2,1-3.9,2.3-5,4c-1.1,1.7-1.6,3.5-1.6,5.6
			c0,2.4,0.6,4.3,1.7,5.7c1.1,1.4,2.6,2.6,4.5,3.4c1.9,0.8,3.9,1.5,6.1,2c2.2,0.5,4.4,1.1,6.6,1.7c2.2,0.6,4.2,1.3,6.1,2.2
			c1.9,0.9,3.4,2.1,4.5,3.7c1.1,1.5,1.7,3.6,1.7,6.1c0,2.2-0.6,4.2-1.7,6.1c-1.2,1.9-3,3.4-5.5,4.5
			C1169.7,666.8,1166.5,667.4,1162.6,667.4z"/>
		<path d="M1213.9,667.1v-49.3h16.7c4,0,7.5,0.6,10.4,1.9c2.9,1.3,5.1,3.1,6.6,5.5c1.5,2.4,2.3,5.3,2.3,8.7c0,3.4-0.8,6.3-2.3,8.7
			c-1.5,2.4-3.8,4.3-6.6,5.6c-2.9,1.3-6.3,1.9-10.4,1.9h-15.9l0.6-0.6v17.5H1213.9z M1215.3,649.5l-0.6-0.6h16
			c5.8,0,10.2-1.3,13.2-3.9c3-2.6,4.6-6.3,4.6-10.9c0-4.7-1.5-8.4-4.6-11c-3.1-2.6-7.4-3.9-13.2-3.9h-16l0.6-0.6V649.5z"/>
		<path d="M1286.3,665.8h31.3v1.3h-32.8v-49.3h31.7v1.3h-30.3V665.8z M1286,641.5h27.5v1.3H1286V641.5z"/>
		<path d="M1373,667.4c-3.6,0-6.9-0.6-10-1.9c-3.1-1.2-5.7-3-8-5.2c-2.3-2.2-4-4.9-5.3-7.9c-1.3-3-1.9-6.3-1.9-9.9s0.6-6.8,1.9-9.9
			c1.3-3,3-5.6,5.3-7.9c2.3-2.3,5-4,8-5.2c3.1-1.2,6.4-1.9,10-1.9c3.2,0,6.3,0.5,9.2,1.5c2.9,1,5.4,2.6,7.5,4.7l-0.8,1
			c-2.2-2.2-4.7-3.7-7.4-4.6c-2.7-0.9-5.5-1.3-8.5-1.3c-3.4,0-6.5,0.6-9.4,1.8c-2.9,1.2-5.4,2.9-7.6,5c-2.2,2.1-3.8,4.6-5,7.5
			c-1.2,2.8-1.8,5.9-1.8,9.3s0.6,6.4,1.8,9.3c1.2,2.8,2.9,5.3,5,7.5c2.1,2.1,4.7,3.8,7.6,5c2.9,1.2,6,1.8,9.4,1.8
			c3,0,5.8-0.5,8.5-1.4c2.7-0.9,5.1-2.4,7.4-4.6l0.8,1c-2.1,2.1-4.6,3.7-7.5,4.7C1379.3,666.8,1376.2,667.4,1373,667.4z"/>
		<path d="M1424.1,667.1v-49.3h1.4v49.3H1424.1z"/>
		<path d="M1456.5,667.1l22.9-49.3h1.4l22.9,49.3h-1.6l-22.3-48.1h0.7l-22.3,48.1H1456.5z M1464,652.3l0.7-1.3h30.6l0.7,1.3H1464z"
			/>
		<path d="M1534.7,667.1v-49.3h1.4v47.9h29.3v1.3H1534.7z"/>
		<path d="M1596.6,667.1v-49.3h1.4v49.3H1596.6z"/>
		<path d="M1649.8,667.4c-3.6,0-6.9-0.7-10.1-2c-3.2-1.3-5.6-3-7.2-5l1-0.9c1.5,1.8,3.8,3.4,6.7,4.6c2.9,1.3,6.1,1.9,9.5,1.9
			c3.6,0,6.5-0.5,8.8-1.5c2.3-1,4-2.3,5.1-4c1.1-1.7,1.6-3.5,1.6-5.5c0-2.3-0.6-4.2-1.7-5.7c-1.1-1.4-2.6-2.6-4.5-3.4
			c-1.9-0.8-3.9-1.5-6.1-2c-2.2-0.5-4.4-1.1-6.6-1.7c-2.2-0.6-4.3-1.3-6.1-2.2c-1.9-0.9-3.4-2.2-4.5-3.8c-1.1-1.6-1.7-3.7-1.7-6.3
			c0-2.2,0.6-4.2,1.7-6.1s2.9-3.4,5.3-4.6c2.4-1.2,5.5-1.8,9.4-1.8c2.6,0,5.2,0.4,7.8,1.2c2.6,0.8,4.7,1.9,6.5,3.3l-0.8,1.1
			c-2-1.5-4.1-2.5-6.5-3.2c-2.4-0.7-4.7-1.1-6.9-1.1c-3.4,0-6.3,0.5-8.5,1.5c-2.2,1-3.9,2.3-5,4c-1.1,1.7-1.6,3.5-1.6,5.6
			c0,2.4,0.6,4.3,1.7,5.7c1.1,1.4,2.6,2.6,4.5,3.4c1.9,0.8,3.9,1.5,6.1,2c2.2,0.5,4.4,1.1,6.6,1.7c2.2,0.6,4.2,1.3,6.1,2.2
			c1.9,0.9,3.4,2.1,4.5,3.7c1.1,1.5,1.7,3.6,1.7,6.1c0,2.2-0.6,4.2-1.7,6.1c-1.2,1.9-3,3.4-5.5,4.5
			C1656.8,666.8,1653.7,667.4,1649.8,667.4z"/>
		<path d="M1710.3,667.1v-47.9H1692v-1.3h38v1.3h-18.3v47.9H1710.3z"/>
	</g>
</g>
</svg>
